# xmcd
#
# Track frame offsets: 
#        150
#        17928
#        33264
#        48296
#        64282
#        81174
#        99257
#        116059
#        133345
#        150749
#        170674
#        187845
#        205076
#        220704
#        235932
#        252736
#        267944
#        282922
#        299312
#        316896
#
# Disc length: 4500 seconds
#
# Revision: 0
# Processed by: cddbd v1.5.2PL0 Copyright (c) Steve Scherf et al.
# Submitted via: ExactAudioCopyFreeDBPlugin 1.0
#
DISCID=27119214
DTITLE=Ro-mania - De 10 ani
DYEAR=2005
DGENRE=Folklore
TTITLE0=Geaba Lele
TTITLE1=Of mai dorule
TTITLE2=Lasa-ma sa beau
TTITLE3=Cei cu inima romana
TTITLE4=Of, lume, lume
TTITLE5=Au, inima, au
TTITLE6=Bolobocul
TTITLE7=Calusul
TTITLE8=Sa-ti sara basca
TTITLE9=Fost-am dus
TTITLE10=Crasmarita
TTITLE11=Ma dusei sa trec la Olt
TTITLE12=Dulce-i vinul
TTITLE13=Haideti sa cantam
TTITLE14=Radu mamii, Radule
TTITLE15=Sanie cu zurgalai
TTITLE16=Canta, romane
TTITLE17=Hai, inima, hai
TTITLE18=Badie, nu uita
TTITLE19=Geba lele
EXTD=
EXTT0=
EXTT1=
EXTT2=
EXTT3=
EXTT4=
EXTT5=
EXTT6=
EXTT7=
EXTT8=
EXTT9=
EXTT10=
EXTT11=
EXTT12=
EXTT13=
EXTT14=
EXTT15=
EXTT16=
EXTT17=
EXTT18=
EXTT19=
PLAYORDER=
